<svg xmlns="http://www.w3.org/2000/svg" width="1005" height="600"><rect width="1005" height="600" x="0" y="0" fill="#FFFFFF" id="backgorund"/><g transform="translate(402.5,300)" id="viz"><path fill="#cccccc" display="" d="M0.9999920729479248,-287.99826391118063A288,288,0,0,1,112.95018736285945,264.9268864700126L57.3236987285839,133.18781312145097A145,145,0,0,0,0.999992072947915,-144.99655173780528Z"><title>800000</title></path><path fill="#17becf" display="" d="M111.10771950644182,265.70486383594454A288,288,0,0,1,-236.56366158621137,164.26087183783136L-118.81933819620816,83.1081516496132A145,145,0,0,0,55.48123087216628,133.96579048738295Z"><title>608090</title></path><path fill="#cccccc" display="" d="M-237.69864207914407,162.614130855012A288,288,0,0,1,-287.95515632305694,-5.082120321660972L-144.9853343292646,-2.0622389365377476A145,145,0,0,0,-119.9543186891408,81.46141066679391Z"><title>707020</title></path><path fill="#7f7f7f" display="" d="M-287.91292106026924,-7.081658459934875A288,288,0,0,1,-251.83975595034602,-139.71663223421237L-127.0344582696779,-69.9088435902745A145,145,0,0,0,-144.9430990664769,-4.061777074811584Z"><title>600000</title></path><path fill="#e377c2" display="" d="M-250.86344267111303,-141.4621261369883A288,288,0,0,1,-186.46254956727697,-219.48967540381204L-94.25657752936085,-110.18483376786293A145,145,0,0,0,-126.05814499044493,-71.65433749305036Z"><title>5A391C</title></path><path fill="#9467bd" display="" d="M-184.93384094540735,-220.77924375533757A288,288,0,0,1,-105.38441569195969,-268.0263511844763L-53.51990885458864,-134.76134221725653A145,145,0,0,0,-92.72786890749131,-111.4744021193884Z"><title>201010</title></path><path fill="#cccccc" display="" d="M-103.52060650333986,-268.75171446742564A288,288,0,0,1,-69.89342996228748,-279.3902440102496L-35.67088021925788,-140.54390169759537A145,145,0,0,0,-51.65609966596889,-135.48670550020577Z"><title>707070</title></path><path fill="#bcbd22" display="" d="M-67.95156172084812,-279.8688715446892A288,288,0,0,1,-45.8731980105148,-284.3231431035611L-23.585936188180142,-143.0688771680518A145,145,0,0,0,-33.72901197781857,-141.02252923203503Z"><title>608070</title></path><path fill="#cccccc" display="" d="M-43.89765318578809,-284.63484685607324A288,288,0,0,1,-33.62835275227078,-286.0299527867123L-17.42397552608925,-143.949314263272A145,145,0,0,0,-21.610391363453505,-143.38058092056392Z"><title>704030</title></path><path fill="#cccccc" display="" d="M-31.641250498969644,-286.25658292319054A288,288,0,0,1,-24.700856406238355,-286.93878736204067L-12.930822341870613,-144.42227609881718A145,145,0,0,0,-15.43687327278818,-144.17594439975025Z"><title>708090</title></path><path fill="#cccccc" display="" d="M-22.707658152015654,-287.10339994721625A288,288,0,0,1,-16.94398284258411,-287.501132946342L-9.02644438730083,-144.71877314890062A145,145,0,0,0,-10.937624087647976,-144.58688868399273Z"><title>6888A0</title></path><path fill="#1f77b4" display="none" d="M-14.947066501035286,-287.6118655462838A288,288,0,0,1,-5.785738502231594,-287.94187821500327L-3.409371123231741,-144.95991235008412A145,145,0,0,0,-7.029528045752072,-144.82950574884245Z"><title/></path><path fill="#cccccc" display="" d="M-3.786030522986179,-287.97511346100555A288,288,0,0,1,-3.193573225766412,-287.9822930147819L-1.757019234372046,-144.989354379589Z"><title>6F4E37</title></path><path fill="#ff7f0e" display="" d="M-1.7947885055514994,-287.9944074703888L-0.9036261573089147,-144.99718431668882Z"><title>007FFF</title></path><path fill="#cccccc" display="" d="M-1.096819646014523,-287.9979114276076L-0.5522182245559231,-144.99894846181633Z"><title>77B5FE</title></path><path fill="#cccccc" display="" d="M-0.6979771423517016,-287.99915421387743L-0.3514121029201276,-144.99957417018135Z"><title>FFD700</title></path><path fill="#2ca02c" display="" d="M-0.4985553407224101,-287.99956847636463L-0.25100876529426897,-144.99978273983635Z"><title>008080</title></path><path fill="#d62728" display="" d="M-0.2991333000503872,-287.99984465146645L-0.15060530731703523,-144.9999217863286Z"><title>009473</title></path><path fill="#8c564b" display="" d="M-0.09971111595267967,-287.99998273905044L-0.05020177712895331,-144.99999130959137Z"><title>50C878</title></path></g><g id="labels" transform="translate(402.5,300)" text-anchor="middle"><text transform="rotate(90) translate(72.5,0) rotate(180)"><tspan x="0" y="4" style="font-family: Arial, sans-serif; font-size: 10px; fill: black; font-weight: normal; font-style: italic;"/></text><text transform="rotate(-11.445889354198812) translate(217.5,0) rotate(0)"><tspan x="0" y="4" style="font-family: Arial, sans-serif; font-size: 10px; fill: black; font-weight: bold;">brown,maroon</tspan></text><text transform="rotate(106.2662552347366) translate(217.5,0) rotate(180)"><tspan x="0" y="4" style="font-family: Arial, sans-serif; font-size: 10px; fill: black; font-weight: bold;">blue</tspan></text><text transform="rotate(163.31716993608111) translate(217.5,0) rotate(180)"><tspan x="0" y="4" style="font-family: Arial, sans-serif; font-size: 10px; fill: black; font-weight: bold;">green</tspan></text><text transform="rotate(195.214899713467) translate(217.5,0) rotate(180)"><tspan x="0" y="4" style="font-family: Arial, sans-serif; font-size: 10px; fill: black; font-weight: bold;">dark brown</tspan></text><text transform="rotate(219.534934979061) translate(217.5,0) rotate(180)"><tspan x="0" y="4" style="font-family: Arial, sans-serif; font-size: 10px; fill: black; font-weight: bold;">hazel</tspan></text><text transform="rotate(239.29248402027764) translate(217.5,0) rotate(180)"><tspan x="0" y="4" style="font-family: Arial, sans-serif; font-size: 10px; fill: black; font-weight: bold;">celestes</tspan></text><text transform="rotate(252.44434648446105) translate(217.5,0) rotate(180)"><tspan x="0" y="4" style="font-family: Arial, sans-serif; font-size: 10px; fill: black; font-weight: bold;">gray</tspan></text><text transform="rotate(258.5937844390566) translate(217.5,0) rotate(180)"><tspan x="0" y="4" style="font-family: Arial, sans-serif; font-size: 10px; fill: black; font-weight: bold;">blue-green</tspan></text><text transform="rotate(262.26361031518616) translate(217.5,0) rotate(180)"><tspan x="0" y="4" style="font-family: Arial, sans-serif; font-size: 10px; fill: black; font-weight: bold;">light brown</tspan></text><text transform="rotate(264.3861582543531) translate(217.5,0) rotate(180)"><tspan x="0" y="4" style="font-family: Arial, sans-serif; font-size: 10px; fill: black; font-weight: bold;">blue-gray</tspan></text><text transform="rotate(266.0524575710822) translate(217.5,0) rotate(180)"><tspan x="0" y="4" style="font-family: Arial, sans-serif; font-size: 10px; fill: black; font-weight: bold;">Azul oscuro</tspan></text><text/><text transform="rotate(269.30570861802954) translate(217.5,0) rotate(180)"><tspan x="0" y="4" style="font-family: Arial, sans-serif; font-size: 10px; fill: black; font-weight: bold;">coffee</tspan></text><text transform="rotate(269.64293586070085) translate(217.5,0) rotate(180)"><tspan x="0" y="4" style="font-family: Arial, sans-serif; font-size: 10px; fill: black; font-weight: bold;">sky blue,azure</tspan></text><text transform="rotate(269.78179413709495) translate(217.5,0) rotate(180)"><tspan x="0" y="4" style="font-family: Arial, sans-serif; font-size: 10px; fill: black; font-weight: bold;">sky blue</tspan></text><text transform="rotate(269.8611417236059) translate(217.5,0) rotate(180)"><tspan x="0" y="4" style="font-family: Arial, sans-serif; font-size: 10px; fill: black; font-weight: bold;">gold</tspan></text><text transform="rotate(269.9008155168614) translate(217.5,0) rotate(180)"><tspan x="0" y="4" style="font-family: Arial, sans-serif; font-size: 10px; fill: black; font-weight: bold;">teal</tspan></text><text transform="rotate(269.9404893101169) translate(217.5,0) rotate(180)"><tspan x="0" y="4" style="font-family: Arial, sans-serif; font-size: 10px; fill: black; font-weight: bold;">emerald</tspan></text><text transform="rotate(269.9801631033724) translate(217.5,0) rotate(180)"><tspan x="0" y="4" style="font-family: Arial, sans-serif; font-size: 10px; fill: black; font-weight: bold;">emerald</tspan></text></g><g id="legend" transform="translate(805,10)"><g transform="translate(5,0)"><g class="legendColor" transform="translate(0,0)"><g class="legendCells" transform="translate(0,16)"><g class="cell" transform="translate(0, 0)"><rect class="swatch" height="15" width="15" style="fill: rgb(31, 119, 180);"/><text class="label" transform="translate( 20, 12.5)" font-family="&quot;Arial&quot;, sans-serif" font-size="10px"><tspan x="0" dy="0em">,,,,,,,,,,,,,,,,,</tspan></text></g><g class="cell" transform="translate(0, 21)"><rect class="swatch" height="15" width="15" style="fill: rgb(255, 127, 14);"/><text class="label" transform="translate( 20, 12.5)" font-family="&quot;Arial&quot;, sans-serif" font-size="10px"><tspan x="0" dy="0em">007FFF,007FFF</tspan></text></g><g class="cell" transform="translate(0, 42)"><rect class="swatch" height="15" width="15" style="fill: rgb(44, 160, 44);"/><text class="label" transform="translate( 20, 12.5)" font-family="&quot;Arial&quot;, sans-serif" font-size="10px"><tspan x="0" dy="0em">008080</tspan></text></g><g class="cell" transform="translate(0, 63)"><rect class="swatch" height="15" width="15" style="fill: rgb(214, 39, 40);"/><text class="label" transform="translate( 20, 12.5)" font-family="&quot;Arial&quot;, sans-serif" font-size="10px"><tspan x="0" dy="0em">009473</tspan></text></g><g class="cell" transform="translate(0, 84)"><rect class="swatch" height="15" width="15" style="fill: rgb(148, 103, 189);"/><text class="label" transform="translate( 20, 12.5)" font-family="&quot;Arial&quot;, sans-serif" font-size="10px"><tspan x="0" dy="0em">201010</tspan></text></g><g class="cell" transform="translate(0, 105)"><rect class="swatch" height="15" width="15" style="fill: rgb(140, 86, 75);"/><text class="label" transform="translate( 20, 12.5)" font-family="&quot;Arial&quot;, sans-serif" font-size="10px"><tspan x="0" dy="0em">50C878</tspan></text></g><g class="cell" transform="translate(0, 126)"><rect class="swatch" height="15" width="15" style="fill: rgb(227, 119, 194);"/><text class="label" transform="translate( 20, 12.5)" font-family="&quot;Arial&quot;, sans-serif" font-size="10px"><tspan x="0" dy="0em">5A391C</tspan></text></g><g class="cell" transform="translate(0, 147)"><rect class="swatch" height="15" width="15" style="fill: rgb(127, 127, 127);"/><text class="label" transform="translate( 20, 12.5)" font-family="&quot;Arial&quot;, sans-serif" font-size="10px"><tspan x="0" dy="0em">600000</tspan></text></g><g class="cell" transform="translate(0, 168)"><rect class="swatch" height="15" width="15" style="fill: rgb(188, 189, 34);"/><text class="label" transform="translate( 20, 12.5)" font-family="&quot;Arial&quot;, sans-serif" font-size="10px"><tspan x="0" dy="0em">608070</tspan></text></g><g class="cell" transform="translate(0, 189)"><rect class="swatch" height="15" width="15" style="fill: rgb(23, 190, 207);"/><text class="label" transform="translate( 20, 12.5)" font-family="&quot;Arial&quot;, sans-serif" font-size="10px"><tspan x="0" dy="0em">608090</tspan></text></g><g class="cell" transform="translate(0, 210)"><rect class="swatch" height="15" width="15" style="fill: rgb(204, 204, 204);"/><text class="label" transform="translate( 20, 12.5)" font-family="&quot;Arial&quot;, sans-serif" font-size="10px"><tspan x="0" dy="0em">6888A0</tspan></text></g><g class="cell" transform="translate(0, 231)"><rect class="swatch" height="15" width="15" style="fill: rgb(204, 204, 204);"/><text class="label" transform="translate( 20, 12.5)" font-family="&quot;Arial&quot;, sans-serif" font-size="10px"><tspan x="0" dy="0em">6F4E37</tspan></text></g><g class="cell" transform="translate(0, 252)"><rect class="swatch" height="15" width="15" style="fill: rgb(204, 204, 204);"/><text class="label" transform="translate( 20, 12.5)" font-family="&quot;Arial&quot;, sans-serif" font-size="10px"><tspan x="0" dy="0em">704030</tspan></text></g><g class="cell" transform="translate(0, 273)"><rect class="swatch" height="15" width="15" style="fill: rgb(204, 204, 204);"/><text class="label" transform="translate( 20, 12.5)" font-family="&quot;Arial&quot;, sans-serif" font-size="10px"><tspan x="0" dy="0em">707020</tspan></text></g><g class="cell" transform="translate(0, 294)"><rect class="swatch" height="15" width="15" style="fill: rgb(204, 204, 204);"/><text class="label" transform="translate( 20, 12.5)" font-family="&quot;Arial&quot;, sans-serif" font-size="10px"><tspan x="0" dy="0em">707070</tspan></text></g><g class="cell" transform="translate(0, 315)"><rect class="swatch" height="15" width="15" style="fill: rgb(204, 204, 204);"/><text class="label" transform="translate( 20, 12.5)" font-family="&quot;Arial&quot;, sans-serif" font-size="10px"><tspan x="0" dy="0em">708090</tspan></text></g><g class="cell" transform="translate(0, 336)"><rect class="swatch" height="15" width="15" style="fill: rgb(204, 204, 204);"/><text class="label" transform="translate( 20, 12.5)" font-family="&quot;Arial&quot;, sans-serif" font-size="10px"><tspan x="0" dy="0em">77B5FE</tspan></text></g><g class="cell" transform="translate(0, 357)"><rect class="swatch" height="15" width="15" style="fill: rgb(204, 204, 204);"/><text class="label" transform="translate( 20, 12.5)" font-family="&quot;Arial&quot;, sans-serif" font-size="10px"><tspan x="0" dy="0em">800000,800000</tspan></text></g><g class="cell" transform="translate(0, 378)"><rect class="swatch" height="15" width="15" style="fill: rgb(204, 204, 204);"/><text class="label" transform="translate( 20, 12.5)" font-family="&quot;Arial&quot;, sans-serif" font-size="10px"><tspan x="0" dy="0em">FFD700</tspan></text></g></g><text class="legendTitle" font-family="&quot;Arial&quot;, sans-serif" font-size="12px" font-weight="bold"><tspan x="0" dy="0em">rgb</tspan></text></g></g></g></svg>